HIERARCHY
ROOT root
{
	OFFSET	0	13.1	24.9
	CHANNELS 6  Xposition Yposition Zposition Xrotation Yrotation Zrotation
	JOINT spine_1
	{
		OFFSET	0	9.99999	0
		CHANNELS 3  Xrotation Yrotation Zrotation
		JOINT spine_2
		{
			OFFSET	0	112	-10
			CHANNELS 3  Xrotation Yrotation Zrotation
			JOINT spine_3
			{
				OFFSET	0	206.5	19.3
				CHANNELS 3  Xrotation Yrotation Zrotation
				JOINT spine_4
				{
					OFFSET	0	110.4	14.6
					CHANNELS 3  Xrotation Yrotation Zrotation
					JOINT neck_1
					{
						OFFSET	0	71.8	-50.3
						CHANNELS 3  Xrotation Yrotation Zrotation
						JOINT neck_2
						{
							OFFSET	0	86.2	-25.8
							CHANNELS 3  Xrotation Yrotation Zrotation
							JOINT head_ee
							{
								OFFSET	0	179.8	-8.7
								CHANNELS 3  Xrotation Yrotation Zrotation
								End Site
								{
									OFFSET	1	0	0
								}
							}
						}
					}
					JOINT left_clavicle
					{
						OFFSET	-43.2	22.4	-70.8
						CHANNELS 3  Xrotation Yrotation Zrotation
						JOINT left_shoulder
						{
							OFFSET	-93.9	-5.79999	48.7
							CHANNELS 3  Xrotation Yrotation Zrotation
							JOINT left_elbow
							{
								OFFSET	-291.4	-30.8	15.2
								CHANNELS 3  Xrotation Yrotation Zrotation
								JOINT left_lowarm_twist
								{
									OFFSET	-110.7	-3.89999	13.6
									CHANNELS 3  Xrotation Yrotation Zrotation
									JOINT left_hand
									{
										OFFSET	-110.7	-3.89999	13.6
										CHANNELS 3  Xrotation Yrotation Zrotation
										JOINT left_ee
										{
											OFFSET	-80.8	-5.10001	12.1
											CHANNELS 3  Xrotation Yrotation Zrotation
											End Site
											{
												OFFSET	1	0	0
											}
										}
									}
								}
							}
						}
					}
					JOINT right_clavicle
					{
						OFFSET	43.2	22.4	-70.8
						CHANNELS 3  Xrotation Yrotation Zrotation
						JOINT right_shoulder
						{
							OFFSET	93.9	-5.79999	48.7
							CHANNELS 3  Xrotation Yrotation Zrotation
							JOINT right_elbow
							{
								OFFSET	291.4	-30.8	15.2
								CHANNELS 3  Xrotation Yrotation Zrotation
								JOINT right_lowarm_twist
								{
									OFFSET	110.7	-3.89999	13.6
									CHANNELS 3  Xrotation Yrotation Zrotation
									JOINT right_hand
									{
										OFFSET	110.7	-3.89999	13.6
										CHANNELS 3  Xrotation Yrotation Zrotation
										JOINT right_ee
										{
											OFFSET	80.8	-5.10001	12.1
											CHANNELS 3  Xrotation Yrotation Zrotation
											End Site
											{
												OFFSET	1	0	0
											}
										}
									}
								}
							}
						}
					}
				}
			}
		}
	}
	JOINT left_hip
	{
		OFFSET	-82.8	-127.5	0.300001
		CHANNELS 3  Xrotation Yrotation Zrotation
		JOINT left_knee
		{
			OFFSET	-28.2	-396.7	2.2
			CHANNELS 3  Xrotation Yrotation Zrotation
			JOINT left_ankle
			{
				OFFSET	-11.7	-411.3	35.4
				CHANNELS 3  Xrotation Yrotation Zrotation
				JOINT left_toes
				{
					OFFSET	0	-60	-88.6
					CHANNELS 3  Xrotation Yrotation Zrotation
					JOINT left_foot_ee
					{
						OFFSET	-22.5	-16.5	-42.2
						CHANNELS 3  Xrotation Yrotation Zrotation
						End Site
						{
							OFFSET	1	0	0
						}
					}
				}
			}
		}
	}
	JOINT right_hip
	{
		OFFSET	82.8	-127.5	0.300001
		CHANNELS 3  Xrotation Yrotation Zrotation
		JOINT right_knee
		{
			OFFSET	28.2	-396.7	2.2
			CHANNELS 3  Xrotation Yrotation Zrotation
			JOINT right_ankle
			{
				OFFSET	11.7	-411.3	35.4
				CHANNELS 3  Xrotation Yrotation Zrotation
				JOINT right_toes
				{
					OFFSET	0	-60	-88.6
					CHANNELS 3  Xrotation Yrotation Zrotation
					JOINT right_foot_ee
					{
						OFFSET	22.5	-16.5	-42.2
						CHANNELS 3  Xrotation Yrotation Zrotation
						End Site
						{
							OFFSET	1	0	0
						}
					}
				}
			}
		}
	}
}
MOTION
Frames: 9
Frame Time: 0.02
3518.81 713.85 -1451.66 1.58131 63.0685 -3.61681 -1.11571 0.209047 0.598768 -1.11553 0.170523 0.610856 -1.1135 0.0260222 0.633676 -1.11404 0.125771 0.621615 -14.9011 22.2572 9.93484 -15.9394 36.834 17.185 -0.0 0.0 -0.0 3.37145 20.7559 7.3089 -18.5926 -18.2676 59.408 2.20452 -47.5132 0.970409 -21.8881 -1.2615 2.4812 -1.97954 6.0847 -10.4563 -0.0 0.0 -0.0 13.1239 25.5133 -26.0204 -8.84883 27.1891 -64.1713 0.366985 10.3037 -0.0330874 75.0629 3.28195 8.30734 0.113655 -29.0623 -11.9902 0.0 0.0 0.0 7.63311 11.2361 -4.40083 -44.7281 -0.794629 6.6471 32.2599 25.5683 -4.37893 -19.4649 0.0 0.0 -0.0 0.0 -0.0 1.70855 -20.8238 3.3786 -15.7814 -0.322019 -2.39277 36.9546 34.5824 5.96186 0.0639232 -0.0 -0.0 0.0 0.0 0.0 
3518.04 717.482 -1456.38 0.567771 64.894 -2.92985 -0.848583 -0.00812713 0.604614 -0.848381 -0.0465831 0.602872 -0.848756 -0.180826 0.576999 -0.84921 -0.0874321 0.598315 -13.3788 22.0765 9.60026 -14.1419 36.2847 16.2045 -0.0 0.0 -0.0 3.5189 20.0672 7.51537 -21.1644 -18.432 58.3502 2.19956 -47.4489 0.966753 -22.3963 -1.30171 2.53241 -1.95888 6.00611 -10.3565 -0.0 0.0 -0.0 13.1151 25.8909 -25.9562 -5.84614 26.0658 -65.5932 0.307572 8.66326 -0.0232973 76.8572 3.4812 8.42277 0.239122 -24.8895 -11.2631 0.0 0.0 0.0 12.4987 17.5675 -8.28642 -50.1726 -1.23724 7.35839 26.478 21.5675 -3.62395 -18.1447 0.0 0.0 -0.0 0.0 -0.0 2.22536 -23.5634 3.33777 -15.3035 -0.322004 -2.31945 36.1985 34.2425 5.84901 -2.76742 0.0 0.0 0.0 0.0 0.0 
3516.06 714.26 -1458.4 -2.30091 65.4792 -0.158886 -0.535108 0.294307 0.584393 -0.534954 0.256525 0.601935 -0.532077 0.118322 0.643529 -0.532589 0.218469 0.616767 -15.2959 22.4087 10.1912 -16.4068 37.0796 17.6392 -0.0 0.0 -0.0 3.48114 19.9948 7.45831 -22.5537 -18.5865 57.667 2.20701 -47.5454 0.97225 -22.8374 -1.33698 2.57657 -1.9939 5.88379 -10.6482 -0.0 0.0 -0.0 13.4212 26.2003 -26.6289 -5.02088 25.9677 -65.4672 0.3293 9.265 -0.026683 75.7248 3.35503 8.35064 -0.101902 -26.0357 -9.72159 0.0 0.0 0.0 14.479 13.3304 -7.66317 -52.8544 -1.47974 7.69277 23.7375 22.1087 -3.29997 -17.4597 0.0 0.0 -0.0 0.0 -0.0 2.69639 -23.5629 2.62136 -14.2106 -0.31967 -2.15179 37.576 32.7715 5.8795 -3.73804 0.0 0.0 0.0 0.0 0.0 
3517.31 712.225 -1460.19 -6.67298 67.2897 4.08651 -0.250049 0.346623 0.565082 -0.249925 0.309964 0.585993 -0.246589 0.177145 0.638813 -0.247052 0.275809 0.602822 -14.3179 22.9663 10.2842 -15.3145 37.8455 17.5495 -0.0 0.0 -0.0 3.75088 19.8545 7.85772 -24.1056 -18.7253 56.8875 2.22641 -47.795 0.986593 -23.1193 -1.35969 2.60464 -2.49236 4.66029 -14.6021 -0.0 0.0 -0.0 13.5029 26.024 -26.84 -3.31893 24.5928 -65.4177 0.316495 8.91062 -0.0246604 77.0933 3.50768 8.4375 0.795034 -25.518 -14.6974 0.0 0.0 0.0 16.761 10.3622 -7.34931 -54.1017 -1.59784 7.8444 24.4915 25.2011 -3.4489 -16.1641 0.0 0.0 -0.0 0.0 -0.0 3.29221 -23.4896 1.62587 -12.0495 -0.305646 -1.82053 37.5097 33.3149 5.91609 -7.96984 0.0 0.0 0.0 0.0 0.0 
3515.6 716.833 -1460.31 -8.83684 69.2599 5.60891 -0.311224 0.323918 0.778822 -0.310928 0.273705 0.797854 -0.306837 0.0954311 0.838077 -0.307746 0.226588 0.812491 -15.1656 22.7246 8.77885 -16.4847 38.4695 16.5065 -0.0 0.0 -0.0 4.15411 19.5233 8.46024 -25.0606 -19.2742 55.9785 2.1516 -46.8195 0.931606 -23.867 -1.42061 2.67858 -2.62716 4.87229 -15.4152 -0.0 0.0 -0.0 13.899 26.208 -27.741 -1.1233 23.0352 -64.6919 0.332901 9.36452 -0.0272657 77.1522 3.5143 8.44115 1.04193 -24.1052 -15.7146 0.0 0.0 0.0 20.0771 10.9378 -8.07775 -54.9667 -1.68169 7.94806 21.2463 25.5373 -3.041 -15.4533 0.0 0.0 -0.0 0.0 -0.0 3.92323 -25.9038 1.21259 -9.48235 -0.272766 -1.42802 37.446 31.797 5.79036 -12.4853 0.0 0.0 0.0 0.0 0.0 
3512.36 715.746 -1463.52 -12.2721 70.4147 8.83366 -0.134683 0.296399 0.582355 -0.134532 0.258743 0.600035 -0.131666 0.125387 0.6413 -0.132169 0.225093 0.613451 -14.8486 22.8575 9.31976 -16.0574 38.338 16.8952 -0.0 0.0 -0.0 4.35526 19.7081 8.7614 -26.8352 -19.2667 55.7156 2.03988 -45.2938 0.851153 -23.957 -1.42801 2.68743 -2.65846 5.10596 -15.5108 -0.0 0.0 -0.0 13.9274 26.438 -27.7786 0.611741 24.7128 -64.5192 0.336018 9.45064 -0.0277752 76.4071 3.43087 8.3944 0.896685 -23.1628 -14.5506 0.0 0.0 0.0 23.786 11.7514 -9.75584 -55.5325 -1.73738 8.01518 17.6597 26.9215 -2.58589 -15.3856 0.0 0.0 -0.0 0.0 -0.0 4.19589 -25.2045 0.938135 -8.92458 -0.263298 -1.34296 36.5691 31.0504 5.64199 -12.1644 0.0 0.0 0.0 0.0 0.0 
3506.05 718.261 -1462.78 -11.2759 70.679 8.08196 -0.0931121 0.343269 0.610468 -0.0929561 0.303728 0.631073 -0.0894342 0.16326 0.681063 -0.0899807 0.26877 0.646735 -15.1454 22.3895 8.155 -16.4707 38.1768 15.8026 -0.0 0.0 -0.0 3.98614 20.071 8.20884 -27.2424 -19.2745 57.6551 1.86461 -42.7236 0.729355 -24.7285 -1.49201 2.76279 -2.47706 5.39177 -14.1336 -0.0 0.0 -0.0 14.055 26.2802 -28.097 2.55356 22.382 -64.2233 0.395241 11.0781 -0.0383293 76.8425 3.47955 8.42185 0.925951 -21.4311 -14.1657 0.0 0.0 0.0 31.232 9.98458 -11.8051 -48.3931 -1.08512 7.1305 15.1486 24.5819 -2.20907 -14.3446 0.0 0.0 -0.0 0.0 -0.0 2.87146 -23.2435 0.58881 -7.90831 -0.24392 -1.18822 37.1338 30.8399 5.68702 -12.3063 0.0 0.0 0.0 0.0 0.0 
3505.07 716.384 -1464.19 -13.1328 71.3749 10.5774 0.0684614 0.261776 0.409715 0.0685239 0.235174 0.425542 0.0703484 0.14106 0.46529 0.0701099 0.212772 0.437174 -16.6641 21.5289 5.89047 -18.3939 38.0755 14.0888 -0.0 0.0 -0.0 5.18956 21.1369 9.96989 -29.4469 -18.856 56.1297 1.64581 -39.1867 0.585865 -24.5195 -1.47457 2.74246 -2.2295 4.88682 -12.7095 -0.0 0.0 -0.0 14.0668 26.9882 -28.0333 4.57306 23.2206 -63.5654 0.422788 11.8291 -0.0437994 76.1976 3.40753 8.38106 1.06535 -20.0222 -14.5577 0.0 0.0 0.0 33.1529 9.77503 -12.5126 -50.8096 -1.29341 7.43882 14.296 25.7652 -2.10483 -12.6065 0.0 0.0 -0.0 0.0 -0.0 2.34736 -23.1862 0.148761 -7.49169 -0.235183 -1.12488 37.4149 27.9936 5.52533 -10.9727 0.0 0.0 0.0 0.0 0.0 
3492.3 723.458 -1462.95 -11.138 70.4313 8.53233 0.101583 0.462201 0.357317 0.101547 0.438528 0.386004 0.104573 0.348473 0.468905 0.10451 0.418154 0.407986 -16.2796 21.11 5.64117 -17.8629 37.3454 13.4945 -0.0 0.0 -0.0 4.83763 22.5823 9.41286 -29.9531 -19.1456 57.706 1.48666 -36.3674 0.488346 -25.6232 -1.56749 2.8491 -2.18169 5.0145 -12.3253 -0.0 0.0 -0.0 14.2908 27.3129 -28.5141 4.54068 23.7863 -63.7738 0.482117 13.4324 -0.0567741 76.4591 3.43669 8.3977 1.21713 -17.1084 -14.5395 0.0 0.0 0.0 30.9234 10.2843 -12.1108 -47.7236 -1.02974 7.04357 8.83972 21.8365 -1.29931 -10.3654 0.0 0.0 -0.0 0.0 -0.0 2.61763 -23.0994 -0.0933514 -7.91783 -0.244114 -1.18966 37.2644 25.1827 5.34596 -10.6649 0.0 0.0 0.0 0.0 0.0 
